<?xml version="1.0" encoding="utf-8"?>
<!-- Generator: Adobe Illustrator 21.0.0, SVG Export Plug-In . SVG Version: 6.00 Build 0)  -->
<svg version="1.1" id="Слой_1" xmlns="http://www.w3.org/2000/svg" xmlns:xlink="http://www.w3.org/1999/xlink" x="0px" y="0px"
	 viewBox="0 0 115.8 115.8" style="enable-background:new 0 0 115.8 115.8;" xml:space="preserve">
<style type="text/css">
	.st0{fill:#CB9E6D;}
</style>
<g>
	<g>
		<path class="st0" d="M57.9,115.8c32,0,57.9-26,57.9-57.9c0-32-26-57.9-57.9-57.9S0,25.9,0,57.9C0,89.8,25.9,115.8,57.9,115.8z
			 M57.9,8.1c27.5,0,49.8,22.3,49.8,49.8s-22.3,49.8-49.8,49.8S8.1,85.3,8.1,57.9C8.1,30.4,30.4,8.1,57.9,8.1z"/>
		<path class="st0" d="M55.2,64.7h19.3c2.3,0,4.1-1.8,4.1-4.1c0-2.3-1.8-4.1-4.1-4.1H59.3V32.7c0-2.3-1.8-4.1-4.1-4.1
			s-4.1,1.8-4.1,4.1v27.9C51.1,62.9,52.9,64.7,55.2,64.7z"/>
	</g>
</g>
</svg>
