<?xml version="1.0" encoding="utf-8"?>
<!-- Generator: Adobe Illustrator 21.0.0, SVG Export Plug-In . SVG Version: 6.00 Build 0)  -->
<svg version="1.1" id="Слой_1" xmlns="http://www.w3.org/2000/svg" xmlns:xlink="http://www.w3.org/1999/xlink" x="0px" y="0px"
	 viewBox="0 0 272.5 284.5" style="enable-background:new 0 0 272.5 284.5;" xml:space="preserve">
<style type="text/css">
	.st0{fill:#CB9E6D;}
	.st1{font-family:'Cambria';}
	.st2{font-size:23.0391px;}
	.st3{fill:#BFBFBF;}
	.st4{fill:#727272;}
</style>
<polygon class="st0" points="41.6,90.8 49,99.2 87.2,59.4 87.2,18.9 102.7,18.9 102.7,43.9 132.4,13.5 219.2,99.2 226.3,91.5 
	133.9,0 112.1,21.3 111.8,10.5 78.7,10.1 78.7,55 "/>
<text transform="matrix(1 0 0 1 69.3503 227.7375)" class="st0 st1 st2">ПАНСИОНАТ</text>
<path class="st0" d="M220.5,132.2c-1.6-5.3-6.9,1.4-6.9,1.4c-5.5,14.4-14.9,20.2-14.9,20.2c-16.2,9.9-27.2,2.9-27.2,2.9
	c19.4-3.6,26.2-10.5,26.2-10.5s2.1-2.5,0-4.6c-2.1-2.1-8.4,0.9-8.4,0.9s-15.7,3.2-33.2,5.5c-12.7,1.7-20,12.6-23,18.5
	c-3.1-5.9-10.4-16.7-23-18.4c-17.5-2.4-33.2-5.5-33.2-5.5s-6.3-3-8.4-0.9c-2.1,2.1,0,4.6,0,4.6s6.9,7,26.2,10.5c0,0-11,7-27.2-2.9
	c0,0-9.3-5.8-14.9-20.2c0,0-5.3-6.7-6.9-1.4c-1.6,5.3,10,27.9,16.1,33.1c6.1,5.1,7,11.3,23.3,10.4c16.3-0.9,15.1-2.6,26.6,3
	c0,0,4.7,3.8,6.7,11.9h0.1v6.2h0.3h9.7c0,0,0,0,0,0h10.1v0h8.9v-6.2c2-8.1,6.8-11.9,6.8-11.9c11.5-5.7,10.3-4,26.6-3
	c16.3,0.9,17.3-5.3,23.3-10.4C210.4,160.1,222,137.4,220.5,132.2z"/>
<path class="st3" d="M166,89.6c-2.4-3.1-11.1-9.3-14.7-23.8c0,0-0.9-1.7-0.3-3.3c0.4,0.1,0.9,0.1,1.4,0.1c4.4,0,7.9-3.6,7.9-7.9
	c0-4.4-3.6-7.9-7.9-7.9s-7.9,3.6-7.9,7.9c0,0.7,0.1,1.5,0.3,2.1c-1.3,0.6-6.2,3.1-9.6,6.6c-4,4.2-9.5,10-11.6,21.9
	c0,0-7.5-2.4-6.5-9.9c0,0,0.6-4,2.9-7.9c4.3-0.1,7.7-3.6,7.7-7.9c0-4.4-3.6-7.9-7.9-7.9c-4.4,0-7.9,3.6-7.9,7.9
	c0,1.2,0.3,2.3,0.7,3.4c-1.5,1.5-10.2,10.4-13.5,16.4c-3.6,6.5-8,17.5-9.3,26.8c-1.3,9.3-1.3,15.2-1.3,15.2l5.5,0.8
	c0,0-2,16-1.5,17.1h11.5c0,0,0.7-0.1,0.9-0.9c0.2-0.8-6.7-3.8-6.7-3.8s0.9-4.3,1.8-6.6c0.9-2.2,1.4-6.2,1.4-6.2h3.5
	c0,0,6.2,16.7,6.5,16.9c0.2,0.2,24.1,0.7,24.1,0.7s0.9-0.6,0-1.8c-0.9-1.2-4.6-2.5-4.6-2.5l-0.6-0.5c0,0,3-14.5,2.4-17.9
	c0,0,5.4,13.9,7,22.1l11.1,0.2c0,0,2.2-0.9,0-1.8c-2.2-1-5.2-2.2-5.2-2.2s-8.2-33.1-5.6-43.6s6.8-14.1,6.8-14.1s0.3-0.6,1.6,0.8
	c1.3,1.4,7.6,11.3,15.9,16.8c0,0-1.2,2.6-0.6,2.6c0.6,0,1.8,0.2,1.8,0.2l0.3-1.3c0,0,2.6,1.7,3.4,1.9s-6.7,40.6-6.7,40.6l1.8,0.2
	l6.9-40.6c0,0,2-1.4,2-2.6C173.1,94.6,168.4,92.7,166,89.6z M121.7,136c0,0.5-1.1,1-1.1,1s-5.8-2.2-5.9-2.6
	c-0.1-0.5-2.6-12.9-2.6-12.9h1.9c0,0-1.6-7.2-2.9-14.3c-1.3-7,0.6-12.7,1-16.6c0.4-3.9,2.2-2.8,2.2-2.8c4.7,4.6,7.4,4.2,7.4,4.2
	c-0.3,4.6,1.8,16.7,2.5,22.1C124.9,119.5,121.7,135.5,121.7,136z"/>
<rect y="218.7" class="st0" width="58.8" height="2.3"/>
<rect x="213.6" y="218.7" class="st0" width="58.8" height="2.3"/>
<g>
	<g>
		<path class="st4" d="M14,245.8v4.1H12c-0.2-1.1-0.6-1.8-1.1-2.3s-1.1-0.8-1.9-0.8c-1.5,0-2.6,0.7-3.4,2.1
			c-0.8,1.4-1.1,3.5-1.1,6.3c0,2.6,0.3,4.6,1,5.9c0.7,1.3,1.7,2,3.1,2c0.7,0,1.2-0.1,1.7-0.3c0.4-0.2,0.8-0.6,1-1
			c0.3-0.5,0.5-1.1,0.7-1.9H14v4.3c-1,0.2-2,0.4-2.8,0.5c-0.9,0.1-1.7,0.2-2.7,0.2c-1.9,0-3.5-0.4-4.8-1.1c-1.2-0.7-2.1-1.8-2.7-3.2
			s-0.9-3.2-0.9-5.4c0-2,0.3-3.8,1-5.3c0.7-1.5,1.7-2.7,3-3.5c1.3-0.8,2.9-1.2,4.8-1.2c0.9,0,1.8,0.1,2.6,0.2
			C12.3,245.4,13.1,245.5,14,245.8z"/>
		<path class="st4" d="M30.4,245.3v4.5h-1.9c-0.3-0.9-0.6-1.5-0.8-1.8c-0.2-0.3-0.5-0.6-0.8-0.7s-0.8-0.3-1.5-0.3h-3.1v6.7h1.9
			c0.4,0,0.7-0.1,1-0.2c0.2-0.1,0.4-0.3,0.6-0.6c0.2-0.3,0.3-0.7,0.4-1.3h1.6v5.7h-1.6c-0.1-0.5-0.3-1-0.4-1.2s-0.3-0.5-0.6-0.6
			c-0.2-0.1-0.5-0.2-1-0.2h-1.9v7.5h3.1c0.3,0,0.6,0,0.8-0.1s0.4-0.1,0.6-0.2c0.2-0.1,0.3-0.2,0.5-0.4c0.2-0.2,0.3-0.4,0.4-0.6
			c0.1-0.2,0.3-0.5,0.4-0.8c0.1-0.3,0.3-0.8,0.5-1.4h1.9l-0.3,5.1H16.5v-0.9c0.3-0.1,0.6-0.2,0.8-0.3c0.2-0.1,0.4-0.3,0.4-0.4
			c0.1-0.2,0.2-0.4,0.2-0.7c0-0.3,0-0.7,0-1.1v-12.1c0-0.4,0-0.8,0-1.1c0-0.3-0.1-0.5-0.2-0.7c-0.1-0.2-0.2-0.3-0.4-0.5
			c-0.2-0.1-0.5-0.2-0.8-0.3v-0.9H30.4z"/>
		<path class="st4" d="M39,261c0,0.6,0,1.1,0.1,1.3c0,0.3,0.1,0.5,0.2,0.6c0.1,0.2,0.3,0.3,0.5,0.4c0.2,0.1,0.5,0.2,0.9,0.3v0.9
			h-7.6v-0.9c0.3-0.1,0.6-0.2,0.8-0.3c0.2-0.1,0.4-0.3,0.4-0.4c0.1-0.2,0.2-0.4,0.2-0.7c0-0.3,0-0.7,0-1.1v-12.1c0-0.4,0-0.8,0-1.1
			c0-0.3-0.1-0.5-0.2-0.7c-0.1-0.2-0.2-0.3-0.4-0.5c-0.2-0.1-0.5-0.2-0.8-0.3v-0.9h8.2c2.4,0,4.1,0.4,5.3,1.3
			c1.2,0.8,1.8,2.2,1.8,3.9c0,1.2-0.3,2.3-0.8,3.2c-0.6,0.9-1.4,1.6-2.4,2.1c-1,0.5-2.4,0.7-3.9,0.7c-0.9,0-1.7,0-2.2-0.1V261z
			 M39,254.9h1.2c0.9,0,1.7-0.1,2.2-0.4c0.6-0.3,1-0.7,1.2-1.3c0.3-0.6,0.4-1.4,0.4-2.3c0-1-0.1-1.8-0.4-2.3c-0.3-0.6-0.7-1-1.2-1.2
			c-0.5-0.2-1.2-0.4-2-0.4c-0.7,0-1.2,0-1.5,0V254.9z"/>
		<path class="st4" d="M64.8,245.3v4.5h-1.9c-0.3-0.9-0.6-1.5-0.8-1.8c-0.2-0.3-0.5-0.6-0.8-0.7s-0.8-0.3-1.5-0.3h-3.1v6.7h1.9
			c0.4,0,0.7-0.1,1-0.2c0.2-0.1,0.4-0.3,0.6-0.6c0.2-0.3,0.3-0.7,0.4-1.3h1.6v5.7h-1.6c-0.1-0.5-0.3-1-0.4-1.2s-0.3-0.5-0.6-0.6
			c-0.2-0.1-0.6-0.2-1-0.2h-1.9v7.5h3.1c0.3,0,0.6,0,0.8-0.1c0.2,0,0.4-0.1,0.6-0.2c0.2-0.1,0.3-0.2,0.5-0.4
			c0.2-0.2,0.3-0.4,0.4-0.6c0.1-0.2,0.3-0.5,0.4-0.8c0.1-0.3,0.3-0.8,0.5-1.4h1.9l-0.3,5.1H50.8v-0.9c0.3-0.1,0.6-0.2,0.8-0.3
			c0.2-0.1,0.4-0.3,0.4-0.4c0.1-0.2,0.2-0.4,0.2-0.7c0-0.3,0-0.7,0-1.1v-12.1c0-0.4,0-0.8,0-1.1c0-0.3-0.1-0.5-0.2-0.7
			c-0.1-0.2-0.2-0.3-0.4-0.5c-0.2-0.1-0.5-0.2-0.8-0.3v-0.9H64.8z"/>
		<path class="st4" d="M67.4,264.5v-0.9c0.6-0.2,1.1-0.4,1.2-0.7c0.2-0.3,0.3-0.9,0.3-1.9v-12.1c0-1-0.1-1.6-0.3-1.9
			c-0.2-0.3-0.6-0.5-1.3-0.7v-0.9h14.8v4.8h-1.9c-0.4-1.3-0.8-2.2-1.2-2.5c-0.4-0.4-1-0.5-1.9-0.5h-3.9v6.5c1.3-0.1,2.4-0.2,3.3-0.2
			c2.4,0,4.1,0.5,5.3,1.4c1.2,0.9,1.8,2.3,1.8,4.3c0,3.7-2.5,5.6-7.5,5.6H67.4z M73.3,262.8c2.4,0.2,4-0.1,4.8-0.7
			c0.8-0.7,1.1-1.7,1.1-3.1c0-2.6-1.3-3.9-3.8-3.9h-0.5c-0.7,0-1.2,0-1.6,0.1V262.8z"/>
		<path class="st4" d="M91.9,261c0,0.6,0,1.1,0.1,1.3c0,0.3,0.1,0.5,0.2,0.6c0.1,0.2,0.3,0.3,0.5,0.4c0.2,0.1,0.5,0.2,0.9,0.3v0.9
			H86v-0.9c0.3-0.1,0.6-0.2,0.8-0.3c0.2-0.1,0.4-0.3,0.4-0.4c0.1-0.2,0.2-0.4,0.2-0.7c0-0.3,0-0.7,0-1.1v-12.1c0-0.4,0-0.8,0-1.1
			c0-0.3-0.1-0.5-0.2-0.7c-0.1-0.2-0.2-0.3-0.4-0.5c-0.2-0.1-0.5-0.2-0.8-0.3v-0.9h8.2c2.4,0,4.1,0.4,5.3,1.3
			c1.2,0.8,1.8,2.2,1.8,3.9c0,1.2-0.3,2.3-0.8,3.2s-1.4,1.6-2.4,2.1c-1,0.5-2.4,0.7-3.9,0.7c-0.9,0-1.7,0-2.2-0.1V261z M91.9,254.9
			h1.2c0.9,0,1.7-0.1,2.2-0.4c0.6-0.3,1-0.7,1.2-1.3c0.3-0.6,0.4-1.4,0.4-2.3c0-1-0.1-1.8-0.4-2.3c-0.3-0.6-0.7-1-1.2-1.2
			c-0.5-0.2-1.2-0.4-2-0.4c-0.7,0-1.2,0-1.5,0V254.9z"/>
		<path class="st4" d="M113,263.6c0.7-0.2,1.1-0.4,1.3-0.7c0.2-0.3,0.3-0.9,0.3-1.9v-4.5h-0.7c-1,0-1.7,0.2-2.2,0.6
			c-0.5,0.4-1.1,1.4-1.7,2.9c-0.7,1.9-1.2,3.1-1.5,3.8v0.7h-5.8v-0.9c0.9-0.1,1.8-1.1,2.4-2.7l0.7-1.7c0.6-1.6,1.7-2.7,3.3-3.3v-0.1
			c-2.7-1-4-2.8-4-5.2c0-3.4,2.4-5.2,7.1-5.2h8.2v0.9c-0.7,0.2-1.1,0.4-1.3,0.7c-0.2,0.3-0.2,0.9-0.2,1.9V261c0,0.9,0.1,1.6,0.3,1.9
			c0.2,0.3,0.6,0.6,1.2,0.7v0.9H113V263.6z M114.5,254.8V247l-0.7,0c-1.8-0.1-3,0.3-3.5,1c-0.6,0.7-0.9,1.7-0.9,2.9
			c0,1.4,0.3,2.4,0.9,3.1c0.6,0.6,1.6,0.9,2.8,0.9H114.5z"/>
		<path class="st4" d="M139.7,261c0,0.7,0,1.2,0.1,1.5c0.1,0.3,0.2,0.5,0.4,0.7c0.2,0.2,0.5,0.3,1,0.4v0.9h-7.3v-0.9
			c0.5-0.1,0.9-0.3,1.1-0.4c0.2-0.1,0.3-0.3,0.3-0.6c0.1-0.3,0.1-0.8,0.1-1.6v-5.6h-6.4v5.6c0,0.3,0,0.6,0,0.9
			c0,0.3,0.1,0.5,0.1,0.7s0.1,0.3,0.2,0.4c0.1,0.1,0.3,0.2,0.4,0.3c0.2,0.1,0.4,0.2,0.7,0.2v0.9h-7.4v-0.9c0.3-0.1,0.6-0.2,0.8-0.3
			c0.2-0.1,0.4-0.3,0.5-0.4c0.1-0.2,0.2-0.4,0.2-0.7c0-0.3,0-0.7,0-1.1v-12.1c0-0.4,0-0.8,0-1.1c0-0.3-0.1-0.5-0.2-0.7
			c-0.1-0.2-0.2-0.3-0.4-0.5c-0.2-0.1-0.5-0.2-0.8-0.3v-0.9h7.4v0.9c-0.5,0.1-0.8,0.3-1,0.5s-0.3,0.4-0.4,0.7
			c-0.1,0.3-0.1,0.8-0.1,1.5v4.7h6.4v-4.7c0-0.7,0-1.2-0.1-1.5c-0.1-0.3-0.2-0.5-0.4-0.7s-0.5-0.3-1-0.5v-0.9h7.3v0.9
			c-0.4,0.1-0.7,0.2-0.9,0.4c-0.2,0.1-0.3,0.3-0.4,0.5c-0.1,0.2-0.1,0.4-0.2,0.7c0,0.2,0,0.6,0,1.1V261z"/>
		<path class="st4" d="M160.4,261c0,0.7,0,1.2,0.1,1.5c0.1,0.3,0.2,0.5,0.4,0.7c0.2,0.2,0.5,0.3,1,0.4v0.9h-7.3v-0.9
			c0.5-0.1,0.9-0.3,1.1-0.4c0.2-0.1,0.3-0.3,0.3-0.6c0.1-0.3,0.1-0.8,0.1-1.6v-5.6h-6.4v5.6c0,0.3,0,0.6,0,0.9
			c0,0.3,0.1,0.5,0.1,0.7c0.1,0.2,0.1,0.3,0.2,0.4c0.1,0.1,0.3,0.2,0.4,0.3c0.2,0.1,0.4,0.2,0.7,0.2v0.9h-7.4v-0.9
			c0.3-0.1,0.6-0.2,0.8-0.3c0.2-0.1,0.4-0.3,0.5-0.4c0.1-0.2,0.2-0.4,0.2-0.7c0-0.3,0-0.7,0-1.1v-12.1c0-0.4,0-0.8,0-1.1
			c0-0.3-0.1-0.5-0.2-0.7c-0.1-0.2-0.2-0.3-0.4-0.5c-0.2-0.1-0.5-0.2-0.8-0.3v-0.9h7.4v0.9c-0.5,0.1-0.8,0.3-1,0.5s-0.3,0.4-0.4,0.7
			c-0.1,0.3-0.1,0.8-0.1,1.5v4.7h6.4v-4.7c0-0.7,0-1.2-0.1-1.5c-0.1-0.3-0.2-0.5-0.4-0.7s-0.5-0.3-1-0.5v-0.9h7.3v0.9
			c-0.4,0.1-0.7,0.2-0.9,0.4c-0.2,0.1-0.3,0.3-0.4,0.5c-0.1,0.2-0.1,0.4-0.2,0.7c0,0.2,0,0.6,0,1.1V261z"/>
		<path class="st4" d="M172.2,245.3v0.9c-0.7,0.1-1.2,0.3-1.4,0.7c-0.2,0.3-0.3,1-0.3,2v4.6c1.2-0.1,2.3-0.2,3.1-0.2
			c2.4,0,4.1,0.5,5.2,1.4c1.1,0.9,1.7,2.3,1.7,4.3c0,3.7-2.4,5.6-7.3,5.6h-8.5v-0.9c0.6-0.2,1.1-0.4,1.2-0.7
			c0.2-0.3,0.3-0.9,0.3-1.9v-12.1c0-1-0.1-1.6-0.3-1.9c-0.2-0.3-0.6-0.5-1.3-0.7v-0.9H172.2z M170.5,255.2v7.6
			c2.3,0.2,3.8-0.1,4.5-0.8c0.7-0.7,1.1-1.7,1.1-3.1c0-1.2-0.3-2.2-0.9-2.9c-0.6-0.7-1.6-1-3.1-1
			C171.7,255.1,171.1,255.1,170.5,255.2z M187.5,248.9V261c0,0.9,0.1,1.6,0.3,1.9c0.2,0.3,0.6,0.6,1.3,0.7v0.9h-7.4v-0.9
			c0.7-0.2,1.1-0.4,1.2-0.7c0.2-0.3,0.3-0.9,0.3-1.9v-12.1c0-1-0.1-1.6-0.3-1.9c-0.2-0.3-0.6-0.5-1.3-0.7v-0.9h7.4v0.9
			c-0.7,0.2-1.1,0.4-1.3,0.7C187.6,247.3,187.5,247.9,187.5,248.9z"/>
		<path class="st4" d="M208.7,261c0,0.9,0.1,1.6,0.2,1.9c0.2,0.3,0.6,0.6,1.2,0.7v0.9h-7.3v-0.9c0.7-0.2,1.1-0.4,1.3-0.7
			c0.2-0.3,0.2-0.9,0.2-1.9v-5.5c0-1.7,0-2.9,0.1-3.8h-0.1l-6.7,9.3c0,0.9,0.1,1.6,0.3,1.9c0.2,0.3,0.6,0.6,1.3,0.7v0.9h-7.4v-0.9
			c0.6-0.2,1.1-0.4,1.2-0.7c0.2-0.3,0.3-0.9,0.3-1.9v-12.1c0-1-0.1-1.6-0.3-1.9c-0.2-0.3-0.6-0.5-1.3-0.7v-0.9h7.4v0.9
			c-0.7,0.2-1.1,0.4-1.3,0.7c-0.2,0.3-0.3,0.9-0.3,1.9v6.2c0,1.2,0,2.1-0.1,2.8h0.1l6.7-9.3c0-0.8-0.1-1.3-0.3-1.6
			c-0.2-0.3-0.6-0.5-1.2-0.7v-0.9h7.3v0.9c-0.7,0.2-1.1,0.4-1.2,0.7c-0.2,0.3-0.3,0.9-0.3,1.9V261z M206.1,240.2
			c0,1.1-0.5,1.9-1.4,2.5c-0.9,0.6-2.2,0.9-3.7,0.9c-3.3,0-5-1.1-5-3.3v-0.9h2.9v0.7c0,1.4,0.7,2.1,2.1,2.1c0.8,0,1.4-0.2,1.7-0.5
			c0.3-0.3,0.5-0.9,0.5-1.6v-0.7h2.9V240.2z"/>
		<path class="st4" d="M231.4,254.5c1.3,0.4,2.3,1,3,1.8c0.7,0.8,1,1.7,1,2.8c0,0.9-0.2,1.8-0.5,2.4c-0.3,0.7-0.8,1.3-1.4,1.7
			c-0.6,0.4-1.4,0.8-2.3,1c-0.9,0.2-2,0.3-3.3,0.3h-8.7v-0.9c0.3-0.1,0.6-0.2,0.8-0.3c0.2-0.1,0.4-0.3,0.5-0.4
			c0.1-0.2,0.2-0.4,0.2-0.7c0-0.3,0-0.7,0-1.1v-12.1c0-0.4,0-0.8,0-1.1c0-0.3-0.1-0.5-0.2-0.7c-0.1-0.2-0.2-0.3-0.4-0.5
			c-0.2-0.1-0.5-0.2-0.8-0.3v-0.9h9.2c1,0,1.9,0.1,2.6,0.2c0.9,0.1,1.6,0.4,2.3,0.7c0.6,0.3,1,0.7,1.4,1.3c0.3,0.6,0.5,1.3,0.5,2
			c0,2.1-1.3,3.7-3.8,4.8V254.5z M227,253.7c0.9,0,1.7-0.1,2.2-0.4c0.5-0.3,0.9-0.7,1.2-1.2c0.3-0.5,0.4-1.2,0.4-2.1
			c0-0.8-0.1-1.4-0.4-1.8c-0.3-0.5-0.7-0.8-1.3-1c-0.6-0.2-1.2-0.3-2.1-0.3c-0.7,0-1.3,0-1.9,0.1v6.7H227z M225.1,262.8
			c0.6,0,1.2,0,1.9,0c0.9,0,1.6-0.1,2.2-0.3c0.6-0.2,1-0.6,1.3-1.2c0.3-0.5,0.5-1.3,0.5-2.3c0-0.7-0.1-1.3-0.3-1.7
			c-0.2-0.5-0.4-0.9-0.8-1.2c-0.3-0.3-0.7-0.5-1.2-0.6c-0.5-0.1-1.1-0.2-1.8-0.2h-2V262.8z"/>
		<path class="st4" d="M252,245.3v4.5h-1.9c-0.3-0.9-0.6-1.5-0.8-1.8c-0.2-0.3-0.5-0.6-0.8-0.7c-0.3-0.2-0.8-0.3-1.5-0.3h-3.1v6.7
			h1.9c0.4,0,0.7-0.1,1-0.2c0.2-0.1,0.4-0.3,0.6-0.6c0.2-0.3,0.3-0.7,0.4-1.3h1.6v5.7h-1.6c-0.1-0.5-0.3-1-0.4-1.2s-0.3-0.5-0.6-0.6
			c-0.2-0.1-0.6-0.2-1-0.2h-1.9v7.5h3.1c0.3,0,0.6,0,0.8-0.1c0.2,0,0.4-0.1,0.6-0.2c0.2-0.1,0.3-0.2,0.5-0.4
			c0.2-0.2,0.3-0.4,0.4-0.6c0.1-0.2,0.3-0.5,0.4-0.8c0.1-0.3,0.3-0.8,0.5-1.4h1.9l-0.3,5.1H238v-0.9c0.3-0.1,0.6-0.2,0.8-0.3
			c0.2-0.1,0.4-0.3,0.5-0.4c0.1-0.2,0.2-0.4,0.2-0.7c0-0.3,0-0.7,0-1.1v-12.1c0-0.4,0-0.8,0-1.1c0-0.3-0.1-0.5-0.2-0.7
			c-0.1-0.2-0.2-0.3-0.4-0.5c-0.2-0.1-0.5-0.2-0.8-0.3v-0.9H252z"/>
		<path class="st4" d="M266.3,264.5v-0.7c-0.1-0.3-0.5-1.2-1-2.8c-0.6-1.8-1.1-3.1-1.4-3.7c-0.3-0.7-0.7-1.1-1.1-1.4
			c-0.4-0.3-1.1-0.5-1.9-0.5h-0.3v5.6c0,0.9,0.1,1.6,0.3,1.9c0.2,0.3,0.6,0.6,1.3,0.7v0.9h-7.4v-0.9c0.6-0.2,1.1-0.4,1.2-0.7
			c0.2-0.3,0.3-0.9,0.3-1.9v-12.1c0-1-0.1-1.6-0.3-1.9c-0.2-0.3-0.6-0.5-1.3-0.7v-0.9h7.4v0.9c-0.7,0.2-1.1,0.4-1.3,0.7
			c-0.2,0.3-0.3,0.9-0.3,1.9v5h0.3c1.1,0,2-0.3,2.6-1c0.6-0.7,1.1-1.6,1.5-2.8c0.5-1.5,0.9-2.5,1.3-3.1c0.4-0.6,0.9-1.1,1.5-1.4
			c0.6-0.3,1.4-0.5,2.4-0.5c0.8,0,1.4,0.1,2,0.3v3.5h-2c-0.1-0.9-0.5-1.3-1.1-1.3c-0.5,0-0.9,0.3-1.2,0.8c-0.3,0.5-0.7,1.3-1.1,2.2
			c-0.6,1.6-1.4,2.7-2.5,3.3v0.1c1,0.1,1.8,0.4,2.3,0.8c0.6,0.4,1,0.8,1.3,1.4c0.3,0.5,0.8,1.6,1.5,3.2c0.8,1.9,1.3,3,1.6,3.5
			c0.3,0.4,0.8,0.7,1.4,0.8v0.9H266.3z"/>
	</g>
</g>
<ellipse transform="matrix(0.8065 -0.5913 0.5913 0.8065 -9.0084 78.0323)" class="st3" cx="114.7" cy="52.8" rx="3.2" ry="2.7"/>
</svg>
